<?xml version="1.0" encoding="UTF-8" standalone="no"?>
<svg width="120px" height="68px" viewBox="0 0 120 68" version="1.1" xmlns="http://www.w3.org/2000/svg" xmlns:xlink="http://www.w3.org/1999/xlink">
    <!-- Generator: Sketch 3.8.2 (29753) - http://www.bohemiancoding.com/sketch -->
    <title>Infinity_1_x2C__Loop_1</title>
    <desc>Created with Sketch.</desc>
    <defs></defs>
    <g id="Page-1" stroke="none" stroke-width="1" fill="none" fill-rule="evenodd">
        <g id="Artboard-1" fill="#333333">
            <path d="M75.165,1.87377778 C73.215,2.56888889 72.45,4.85822222 73.3575,6.732 L76.6425,13.5168889 C77.55,15.3906667 79.8,16.1311111 81.81,15.6324444 C83.235,15.2848889 84.72,15.1111111 86.25,15.1111111 C96.5925,15.1111111 105,23.5808889 105,34 C105,44.4191111 96.5925,52.8888889 86.25,52.8888889 C75.9075,52.8888889 67.5,44.4191111 67.5,34 C67.5,15.2546667 52.3575,0 33.75,0 C15.1425,0 0,15.2546667 0,34 C0,52.7453333 15.1425,68 33.75,68 C37.6125,68 41.325,67.3728889 44.835,66.1262222 C46.785,65.4311111 47.55,63.1417778 46.6425,61.268 L43.3575,54.4831111 C42.45,52.6093333 40.2,51.8688889 38.19,52.3675556 C36.765,52.7151111 35.28,52.8888889 33.75,52.8888889 C23.4075,52.8888889 15,44.4191111 15,34 C15,23.5808889 23.4075,15.1111111 33.75,15.1111111 C43.995,15.1111111 52.35,23.4373333 52.5,33.7204444 L52.6575,37.2337778 C54.27,54.468 68.7225,68 86.25,68 C104.8575,68 120,52.7453333 120,34 C120,15.2546667 104.8575,0 86.25,0 C82.3875,0 78.675,0.627111111 75.165,1.87377778 L75.165,1.87377778 Z" id="Infinity_1_x2C__Loop_1"></path>
        </g>
    </g>
</svg>